<?xml version="1.0" encoding="UTF-8" standalone="no"?>
<svg
   xmlns:dc="http://purl.org/dc/elements/1.1/"
   xmlns:cc="http://creativecommons.org/ns#"
   xmlns:rdf="http://www.w3.org/1999/02/22-rdf-syntax-ns#"
   xmlns:svg="http://www.w3.org/2000/svg"
   xmlns="http://www.w3.org/2000/svg"
   xmlns:sodipodi="http://sodipodi.sourceforge.net/DTD/sodipodi-0.dtd"
   xmlns:inkscape="http://www.inkscape.org/namespaces/inkscape"
   width="24"
   height="24"
   viewBox="0 0 24 24"
   version="1.1"
   id="svg4654"
   sodipodi:docname="ic_baby_launcher_foreground.svg"
   inkscape:version="0.92.3 (2405546, 2018-03-11)">
  <metadata
     id="metadata4660">
    <rdf:RDF>
      <cc:Work
         rdf:about="">
        <dc:format>image/svg+xml</dc:format>
        <dc:type
           rdf:resource="http://purl.org/dc/dcmitype/StillImage" />
        <dc:title></dc:title>
      </cc:Work>
    </rdf:RDF>
  </metadata>
  <defs
     id="defs4658" />
  <sodipodi:namedview
     pagecolor="#ffffff"
     bordercolor="#666666"
     borderopacity="1"
     objecttolerance="10"
     gridtolerance="10"
     guidetolerance="10"
     inkscape:pageopacity="0"
     inkscape:pageshadow="2"
     inkscape:window-width="1920"
     inkscape:window-height="1031"
     id="namedview4656"
     showgrid="false"
     inkscape:zoom="33.16046"
     inkscape:cx="12.908865"
     inkscape:cy="11.969296"
     inkscape:window-x="0"
     inkscape:window-y="25"
     inkscape:window-maximized="1"
     inkscape:current-layer="g852"
     fit-margin-top="0"
     fit-margin-left="0"
     fit-margin-right="0"
     fit-margin-bottom="0" />
  <g
     id="g852"
     transform="matrix(0.30401753,0,0,0.30401753,5.4868037,3.2863525)">
    <path
       inkscape:connector-curvature="0"
       id="path4648"
       d="m 23.816637,12.897551 m -1.25,0 a 1.25,1.25 0 1 1 2.5,0 1.25,1.25 0 1 1 -2.5,0"
       fill="#FF000000" />
    <path
       inkscape:connector-curvature="0"
       id="path4650"
       d="m 18.816637,12.897551 m -1.25,0 a 1.25,1.25 0 1 1 2.5,0 1.25,1.25 0 1 1 -2.5,0"
       fill="#FF000000" />
    <path
       inkscape:connector-curvature="0"
       id="path4652"
       d="m 32.256637,15.057551 c 0.04,-0.21 0.06,-0.43 0.06,-0.66 0,-0.23 -0.02,-0.45 -0.06,-0.66 -0.25,-1.51 -1.36,-2.74 -2.81,-3.17 -0.53,-1.1200001 -1.28,-2.1000002 -2.19,-2.9100002 -1.58,-1.41 -3.66,-2.26 -5.94,-2.26 -2.28,0 -4.36,0.85 -5.94,2.26 -0.92,0.81 -1.67,1.8000001 -2.19,2.9100002 -1.45,0.43 -2.56,1.65 -2.81,3.17 -0.04,0.21 -0.06,0.43 -0.06,0.66 0,0.23 0.02,0.45 0.06,0.66 0.25,1.51 1.36,2.74 2.81,3.17 0.52,1.11 1.27,2.09 2.17,2.89 1.58,1.42 3.67,2.28 5.96,2.28 2.29,0 4.38,-0.86 5.97,-2.28 0.9,-0.8 1.65,-1.79 2.17,-2.89 1.44,-0.43 2.55,-1.65 2.8,-3.17 z m -3.94,1.34 c -0.1,0 -0.19,-0.02 -0.29,-0.03 -0.2,0.67 -0.49,1.29 -0.86,1.86 -1.25,1.91 -3.4,3.17 -5.85,3.17 -2.45,0 -4.6,-1.26 -5.85,-3.17 -0.37,-0.57 -0.66,-1.19 -0.86,-1.86 -0.1,0.01 -0.19,0.03 -0.29,0.03 -1.1,0 -2,-0.9 -2,-2 0,-1.1 0.9,-2 2,-2 0.1,0 0.19,0.02 0.29,0.03 0.2,-0.67 0.49,-1.29 0.86,-1.86 1.25,-1.9100001 3.4,-3.1700002 5.85,-3.1700002 2.45,0 4.6,1.2600001 5.85,3.1700002 0.37,0.57 0.66,1.19 0.86,1.86 0.1,-0.01 0.19,-0.03 0.29,-0.03 1.1,0 2,0.9 2,2 0,1.1 -0.9,2 -2,2 z m -11.5,0 c 0.76,1.77 2.49,3 4.5,3 2.01,0 3.74,-1.23 4.5,-3 z"
       fill="#FF000000" />
    <path
       style="color:#000000;font-style:normal;font-variant:normal;font-weight:normal;font-stretch:normal;font-size:medium;line-height:normal;font-family:sans-serif;font-variant-ligatures:normal;font-variant-position:normal;font-variant-caps:normal;font-variant-numeric:normal;font-variant-alternates:normal;font-feature-settings:normal;text-indent:0;text-align:start;text-decoration:none;text-decoration-line:none;text-decoration-style:solid;text-decoration-color:#000000;letter-spacing:normal;word-spacing:normal;text-transform:none;writing-mode:lr-tb;direction:ltr;text-orientation:mixed;dominant-baseline:auto;baseline-shift:baseline;text-anchor:start;white-space:normal;shape-padding:0;clip-rule:nonzero;display:inline;overflow:visible;visibility:visible;opacity:1;isolation:auto;mix-blend-mode:normal;color-interpolation:sRGB;color-interpolation-filters:linearRGB;solid-color:#000000;solid-opacity:1;vector-effect:none;fill:#000000;fill-opacity:1;fill-rule:evenodd;stroke:none;stroke-width:1px;stroke-linecap:butt;stroke-linejoin:miter;stroke-miterlimit:4;stroke-dasharray:none;stroke-dashoffset:0;stroke-opacity:1;color-rendering:auto;image-rendering:auto;shape-rendering:auto;text-rendering:auto;enable-background:accumulate"
       d="M 20.529297,0.03515625 C 19.716836,0.16700047 18.988763,0.68168557 18.568359,1.375 c -0.465073,0.7669853 -0.485238,1.696139 -0.316406,2.4863281 0.102809,0.4811791 0.386838,0.9049077 0.638672,1.2695313 0.251834,0.3646235 0.486328,0.6445312 0.486328,0.6445312 L 19.542969,5.9726562 19.800781,5.953125 23.1875,5.6816406 22.193359,4.8925781 c 0,0 -0.321186,-0.2559898 -0.671875,-0.6035156 -0.350688,-0.3475258 -0.71089,-0.8195182 -0.77539,-1.0234375 -0.07252,-0.2292802 -0.12636,-0.5191496 -0.119141,-0.7480469 0.0072,-0.2288972 0.06695,-0.358459 0.136719,-0.4179687 0.04532,-0.038655 0.186235,-0.089516 0.359375,-0.076172 0.133993,0.010327 0.242788,0.068958 0.333984,0.1210937 -0.0021,0.025888 -0.0023,0.029078 -0.0059,0.0625 -0.0098,0.092844 -0.03007,0.2074262 -0.002,0.3769532 0.02812,0.1695269 0.18758,0.444148 0.425781,0.5351562 0.371844,0.1420682 0.703762,-0.030037 0.90625,-0.2011718 C 22.983738,2.7468337 23.125801,2.5466776 23.207031,2.296875 23.411639,1.6676707 23.144422,1.0758312 22.742188,0.68164062 22.151905,0.10316325 21.294174,-0.08896598 20.529297,0.03515625 Z m 0.160156,0.98828125 c 0.08929,-0.01449 0.16832,0.069573 0.265625,0.072266 -0.22074,0.011887 -0.434959,0.067289 -0.638672,0.1855469 0.142042,-0.06781 0.2331,-0.2351021 0.373047,-0.2578125 z m -0.621094,0.4277344 c -0.284079,0.301857 -0.428297,0.681439 -0.439453,1.0351562 -0.01237,0.3922767 0.06503,0.7669823 0.164063,1.0800781 C 19.96053,4.0961576 20.360843,4.507069 20.726562,4.875 l -0.734374,0.058594 C 19.913343,4.8348098 19.858015,4.7726226 19.712891,4.5625 19.489772,4.2394516 19.265586,3.8167027 19.230469,3.6523438 19.101503,3.0487447 19.149922,2.3442957 19.423828,1.8925781 19.553705,1.6783898 19.838118,1.6074917 20.068359,1.4511719 Z"
       id="path4662"
       inkscape:connector-curvature="0" />
    <path
       style="color:#000000;font-style:normal;font-variant:normal;font-weight:normal;font-stretch:normal;font-size:medium;line-height:normal;font-family:sans-serif;font-variant-ligatures:normal;font-variant-position:normal;font-variant-caps:normal;font-variant-numeric:normal;font-variant-alternates:normal;font-feature-settings:normal;text-indent:0;text-align:start;text-decoration:none;text-decoration-line:none;text-decoration-style:solid;text-decoration-color:#000000;letter-spacing:normal;word-spacing:normal;text-transform:none;writing-mode:lr-tb;direction:ltr;text-orientation:mixed;dominant-baseline:auto;baseline-shift:baseline;text-anchor:start;white-space:normal;shape-padding:0;clip-rule:nonzero;display:inline;overflow:visible;visibility:visible;opacity:1;isolation:auto;mix-blend-mode:normal;color-interpolation:sRGB;color-interpolation-filters:linearRGB;solid-color:#000000;solid-opacity:1;vector-effect:none;fill:#000000;fill-opacity:1;fill-rule:nonzero;stroke:none;stroke-width:1.93133855;stroke-linecap:butt;stroke-linejoin:miter;stroke-miterlimit:4;stroke-dasharray:none;stroke-dashoffset:0;stroke-opacity:1;color-rendering:auto;image-rendering:auto;shape-rendering:auto;text-rendering:auto;enable-background:accumulate"
       d="m 21.201172,23.759766 c -6.062225,-10e-7 -10.804687,5.833305 -10.804688,12.80664 0,6.973336 4.742462,12.806641 10.804688,12.806641 6.062225,0 10.804687,-5.833305 10.804687,-12.806641 0,-6.973335 -4.742462,-12.806641 -10.804687,-12.80664 z m 0,1.93164 c 4.806112,0 8.873046,4.768992 8.873047,10.875 0,6.106009 -4.066935,10.875 -8.873047,10.875 -4.806112,0 -8.873047,-4.768991 -8.873047,-10.875 0,-6.106008 4.066935,-10.875 8.873047,-10.875 z"
       id="path4666"
       inkscape:connector-curvature="0" />
    <path
       style="color:#000000;font-style:normal;font-variant:normal;font-weight:normal;font-stretch:normal;font-size:medium;line-height:normal;font-family:sans-serif;font-variant-ligatures:normal;font-variant-position:normal;font-variant-caps:normal;font-variant-numeric:normal;font-variant-alternates:normal;font-feature-settings:normal;text-indent:0;text-align:start;text-decoration:none;text-decoration-line:none;text-decoration-style:solid;text-decoration-color:#000000;letter-spacing:normal;word-spacing:normal;text-transform:none;writing-mode:lr-tb;direction:ltr;text-orientation:mixed;dominant-baseline:auto;baseline-shift:baseline;text-anchor:start;white-space:normal;shape-padding:0;clip-rule:nonzero;display:inline;overflow:visible;visibility:visible;opacity:1;isolation:auto;mix-blend-mode:normal;color-interpolation:sRGB;color-interpolation-filters:linearRGB;solid-color:#000000;solid-opacity:1;vector-effect:none;fill:#000000;fill-opacity:1;fill-rule:nonzero;stroke:none;stroke-width:1.51181102;stroke-linecap:butt;stroke-linejoin:miter;stroke-miterlimit:4;stroke-dasharray:none;stroke-dashoffset:0;stroke-opacity:1;color-rendering:auto;image-rendering:auto;shape-rendering:auto;text-rendering:auto;enable-background:accumulate"
       d="m 34.995184,22.836032 c -1.603485,0.807398 -2.930751,1.788889 -3.822298,2.788396 -0.445774,0.499754 -0.786384,1.00361 -0.982691,1.535705 -0.196307,0.532094 -0.242007,1.139262 0.02655,1.672615 0.268558,0.533353 0.784431,0.859939 1.328795,1.019086 0.544365,0.159148 1.151097,0.183804 1.818034,0.123278 1.333873,-0.121052 2.912735,-0.602875 4.51622,-1.410274 1.603486,-0.807398 2.932496,-1.789767 3.824043,-2.789275 0.445774,-0.499753 0.787264,-1.001865 0.983569,-1.53396 0.196307,-0.532095 0.24113,-1.141007 -0.02743,-1.67436 -0.268558,-0.533352 -0.783552,-0.858196 -1.327917,-1.017341 -0.544364,-0.159147 -1.151975,-0.185548 -1.818912,-0.125022 -1.333873,0.121052 -2.914479,0.603753 -4.517965,1.411152 z m 0.679868,1.350211 c 1.459455,-0.734875 2.901039,-1.157697 3.973362,-1.255013 0.536162,-0.04866 0.979063,-0.01223 1.259736,0.06982 0.280675,0.08205 0.365777,0.174884 0.401616,0.24606 0.03584,0.07118 0.06061,0.196565 -0.0406,0.470913 -0.101215,0.274347 -0.336571,0.650105 -0.694937,1.051866 -0.71673,0.803521 -1.914849,1.70986 -3.374304,2.444735 -1.459455,0.734875 -2.899293,1.156819 -3.971617,1.254135 -0.536161,0.04866 -0.978185,0.01398 -1.258858,-0.06808 -0.280674,-0.08206 -0.366655,-0.176629 -0.402494,-0.247804 -0.03584,-0.07118 -0.05974,-0.194822 0.04148,-0.469169 0.101216,-0.274348 0.335694,-0.65185 0.694059,-1.053611 0.716731,-0.803521 1.913104,-1.708982 3.372559,-2.443857 z"
       id="path4668"
       inkscape:connector-curvature="0" />
    <path
       style="color:#000000;font-style:normal;font-variant:normal;font-weight:normal;font-stretch:normal;font-size:medium;line-height:normal;font-family:sans-serif;font-variant-ligatures:normal;font-variant-position:normal;font-variant-caps:normal;font-variant-numeric:normal;font-variant-alternates:normal;font-feature-settings:normal;text-indent:0;text-align:start;text-decoration:none;text-decoration-line:none;text-decoration-style:solid;text-decoration-color:#000000;letter-spacing:normal;word-spacing:normal;text-transform:none;writing-mode:lr-tb;direction:ltr;text-orientation:mixed;dominant-baseline:auto;baseline-shift:baseline;text-anchor:start;white-space:normal;shape-padding:0;clip-rule:nonzero;display:inline;overflow:visible;visibility:visible;opacity:1;isolation:auto;mix-blend-mode:normal;color-interpolation:sRGB;color-interpolation-filters:linearRGB;solid-color:#000000;solid-opacity:1;vector-effect:none;fill:#000000;fill-opacity:1;fill-rule:nonzero;stroke:none;stroke-width:1.51181102;stroke-linecap:butt;stroke-linejoin:miter;stroke-miterlimit:4;stroke-dasharray:none;stroke-dashoffset:0;stroke-opacity:1;color-rendering:auto;image-rendering:auto;shape-rendering:auto;text-rendering:auto;enable-background:accumulate"
       d="m 31.183019,53.323107 c 1.193885,1.340781 2.485975,2.371229 3.681717,2.974612 0.597872,0.301691 1.172566,0.500723 1.737298,0.553052 0.564732,0.05233 1.163126,-0.06022 1.609098,-0.457332 0.445972,-0.39711 0.626896,-0.978496 0.640156,-1.545492 0.01326,-0.566996 -0.118049,-1.160835 -0.348652,-1.789556 -0.461208,-1.257442 -1.335491,-2.659921 -2.529376,-4.000702 -1.193885,-1.340783 -2.484675,-2.369772 -3.680419,-2.973154 -0.597871,-0.301691 -1.172565,-0.500724 -1.737297,-0.553052 -0.564732,-0.05233 -1.163126,0.06022 -1.609098,0.457331 -0.445972,0.397111 -0.626896,0.978496 -0.640156,1.545493 -0.01326,0.566996 0.118048,1.160835 0.348652,1.789556 0.461208,1.257442 1.334192,2.658461 2.528077,3.999244 z m 1.129004,-1.005309 c -1.086647,-1.220349 -1.865901,-2.502509 -2.236673,-3.513387 -0.185387,-0.50544 -0.264504,-0.942737 -0.257666,-1.235079 0.0068,-0.292343 0.07456,-0.39852 0.134071,-0.451514 0.05952,-0.05299 0.174262,-0.109294 0.465438,-0.08231 0.291175,0.02698 0.714945,0.157384 1.195585,0.399919 0.961278,0.485069 2.144833,1.407225 3.231479,2.627573 1.086646,1.220349 1.867199,2.503968 2.237971,3.514846 0.185386,0.50544 0.265963,0.941438 0.259125,1.23378 -0.0068,0.292343 -0.07601,0.399819 -0.13553,0.452813 -0.05951,0.05299 -0.172804,0.107995 -0.463979,0.08101 -0.291176,-0.02698 -0.716405,-0.156086 -1.197044,-0.398621 -0.961278,-0.485069 -2.146131,-1.408683 -3.232777,-2.629031 z"
       id="path4668-3"
       inkscape:connector-curvature="0" />
    <path
       style="color:#000000;font-style:normal;font-variant:normal;font-weight:normal;font-stretch:normal;font-size:medium;line-height:normal;font-family:sans-serif;font-variant-ligatures:normal;font-variant-position:normal;font-variant-caps:normal;font-variant-numeric:normal;font-variant-alternates:normal;font-feature-settings:normal;text-indent:0;text-align:start;text-decoration:none;text-decoration-line:none;text-decoration-style:solid;text-decoration-color:#000000;letter-spacing:normal;word-spacing:normal;text-transform:none;writing-mode:lr-tb;direction:ltr;text-orientation:mixed;dominant-baseline:auto;baseline-shift:baseline;text-anchor:start;white-space:normal;shape-padding:0;clip-rule:nonzero;display:inline;overflow:visible;visibility:visible;opacity:1;isolation:auto;mix-blend-mode:normal;color-interpolation:sRGB;color-interpolation-filters:linearRGB;solid-color:#000000;solid-opacity:1;vector-effect:none;fill:#000000;fill-opacity:1;fill-rule:nonzero;stroke:none;stroke-width:1.51181102;stroke-linecap:butt;stroke-linejoin:miter;stroke-miterlimit:4;stroke-dasharray:none;stroke-dashoffset:0;stroke-opacity:1;color-rendering:auto;image-rendering:auto;shape-rendering:auto;text-rendering:auto;enable-background:accumulate"
       d="m 7.8505554,22.070188 c 1.6034849,0.807398 2.9324956,1.789767 3.8240426,2.789275 0.445774,0.499753 0.787264,1.001865 0.98357,1.533959 0.196307,0.532095 0.241129,1.141008 -0.02743,1.674361 -0.268558,0.533352 -0.783552,0.858195 -1.327917,1.017341 -0.544364,0.159147 -1.151975,0.185548 -1.8189116,0.125022 C 8.1500382,29.089094 6.5694312,28.606392 4.9659463,27.798994 3.3624605,26.991596 2.035195,26.010105 1.1436476,25.010598 0.69787396,24.510844 0.35726291,24.006987 0.16095703,23.474893 -0.03534974,22.942798 -0.08105101,22.33563 0.18750629,21.802278 0.45606395,21.268925 0.97193666,20.942337 1.5163018,20.783191 2.0606661,20.624044 2.667398,20.599388 3.3343346,20.659914 c 1.3338732,0.121052 2.912735,0.602875 4.5162208,1.410274 z m -0.679868,1.350211 c -1.4594552,-0.734875 -2.899293,-1.156818 -3.971617,-1.254134 -0.5361627,-0.04866 -0.9781843,-0.01398 -1.2588585,0.06808 -0.2806741,0.08205 -0.3666548,0.176629 -0.4024935,0.247804 -0.035839,0.07118 -0.059737,0.194821 0.041478,0.469169 0.1012154,0.274348 0.3356924,0.651849 0.694058,1.053611 0.7167308,0.803521 1.9131049,1.708981 3.37256,2.443856 1.4594552,0.734875 2.9010378,1.157698 3.9733609,1.255014 0.5361624,0.04866 0.9790634,0.01223 1.2597374,-0.06982 0.280674,-0.08206 0.365776,-0.174883 0.401615,-0.246059 0.03584,-0.07118 0.06062,-0.196566 -0.0406,-0.470913 C 11.138713,26.642654 10.903357,26.266896 10.544991,25.865135 9.8282614,25.061614 8.6301425,24.155274 7.1706874,23.420399 Z"
       id="path4668-6"
       inkscape:connector-curvature="0" />
    <path
       style="color:#000000;font-style:normal;font-variant:normal;font-weight:normal;font-stretch:normal;font-size:medium;line-height:normal;font-family:sans-serif;font-variant-ligatures:normal;font-variant-position:normal;font-variant-caps:normal;font-variant-numeric:normal;font-variant-alternates:normal;font-feature-settings:normal;text-indent:0;text-align:start;text-decoration:none;text-decoration-line:none;text-decoration-style:solid;text-decoration-color:#000000;letter-spacing:normal;word-spacing:normal;text-transform:none;writing-mode:lr-tb;direction:ltr;text-orientation:mixed;dominant-baseline:auto;baseline-shift:baseline;text-anchor:start;white-space:normal;shape-padding:0;clip-rule:nonzero;display:inline;overflow:visible;visibility:visible;opacity:1;isolation:auto;mix-blend-mode:normal;color-interpolation:sRGB;color-interpolation-filters:linearRGB;solid-color:#000000;solid-opacity:1;vector-effect:none;fill:#000000;fill-opacity:1;fill-rule:nonzero;stroke:none;stroke-width:1.51181102;stroke-linecap:butt;stroke-linejoin:miter;stroke-miterlimit:4;stroke-dasharray:none;stroke-dashoffset:0;stroke-opacity:1;color-rendering:auto;image-rendering:auto;shape-rendering:auto;text-rendering:auto;enable-background:accumulate"
       d="M 11.663686,53.785143 C 10.4698,55.125926 9.1790093,56.154914 7.9832665,56.758296 7.385395,57.059987 6.8107012,57.25902 6.2459688,57.31135 5.6812372,57.363678 5.0828432,57.251128 4.6368712,56.854017 4.1908999,56.456907 4.0085169,55.874222 3.9952557,55.307226 3.9819952,54.74023 4.1133048,54.14639 4.3439086,53.517669 4.8051162,52.260228 5.6795592,50.860507 6.8734444,49.519725 8.0673288,48.178943 9.35796,47.147196 10.553702,46.543815 c 0.597872,-0.301692 1.172566,-0.500724 1.737299,-0.553053 0.564731,-0.05233 1.164584,0.06152 1.610556,0.45863 0.445971,0.397112 0.626896,0.978497 0.640157,1.545493 0.01326,0.566997 -0.11805,1.160836 -0.348654,1.789556 -0.461207,1.257441 -1.33549,2.659921 -2.529374,4.000702 z m -1.129004,-1.005309 c 1.086646,-1.220348 1.867199,-2.503966 2.237971,-3.514846 0.185387,-0.505439 0.264504,-0.942736 0.257667,-1.235079 -0.0068,-0.292342 -0.07456,-0.39852 -0.134072,-0.451514 -0.05951,-0.05299 -0.174262,-0.109293 -0.465437,-0.08231 -0.291176,0.02698 -0.716405,0.156086 -1.197045,0.39862 -0.961278,0.48507 -2.1446721,1.409982 -3.2313183,2.630331 -1.0866462,1.220348 -1.867359,2.501209 -2.2381322,3.512089 -0.1853859,0.505439 -0.2645035,0.942736 -0.2576659,1.235079 0.00684,0.292342 0.076016,0.399818 0.1355304,0.452812 0.059514,0.05299 0.1728041,0.107995 0.4639788,0.08101 0.2911753,-0.02698 0.716405,-0.156085 1.1970435,-0.39862 0.9612793,-0.48507 2.1448337,-1.407225 3.2314797,-2.627574 z"
       id="path4668-3-7"
       inkscape:connector-curvature="0" />
  </g>
</svg>
